<svg width="63" height="56" viewBox="0 0 63 56" fill="none" xmlns="http://www.w3.org/2000/svg">
<rect x="25.5715" y="26.4285" width="12.8571" height="4.28571" rx="2.14286" fill="#CD3131"/>
<path d="M39.9549 12.045C44.3483 16.4384 44.3483 23.5616 39.9549 27.9549C35.5615 32.3483 28.4384 32.3483 24.045 27.9549C19.6517 23.5615 19.6517 16.4384 24.045 12.045C28.4384 7.65165 35.5616 7.65165 39.9549 12.045" stroke="#173EA5" stroke-width="1.5" stroke-linecap="round" stroke-linejoin="round"/>
<path fill-rule="evenodd" clip-rule="evenodd" d="M34.487 15.4049C35.8602 16.7781 35.8602 19.0044 34.487 20.3776C33.1138 21.7508 30.8874 21.7508 29.5143 20.3776C28.1411 19.0044 28.1411 16.7781 29.5143 15.4049C30.8874 14.0317 33.1138 14.0317 34.487 15.4049" fill="#173EA5"/>
<path d="M34.487 15.4049C35.8602 16.7781 35.8602 19.0044 34.487 20.3776C33.1138 21.7508 30.8874 21.7508 29.5143 20.3776C28.1411 19.0044 28.1411 16.7781 29.5143 15.4049C30.8874 14.0317 33.1138 14.0317 34.487 15.4049" stroke="#173EA5" stroke-width="1.5" stroke-linecap="round" stroke-linejoin="round"/>
<path d="M39.5 28.6988C37.7062 26.81 34.81 25.625 32 25.625C29.19 25.625 26.66 26.8088 24.8662 28.6988" stroke="#173EA5" stroke-width="1.5" stroke-linecap="round" stroke-linejoin="round"/>
<path d="M0.444 41.812C0.444 40.996 0.632 40.264 1.008 39.616C1.392 38.968 1.908 38.464 2.556 38.104C3.212 37.736 3.928 37.552 4.704 37.552C5.592 37.552 6.38 37.772 7.068 38.212C7.764 38.644 8.268 39.26 8.58 40.06H6.936C6.72 39.62 6.42 39.292 6.036 39.076C5.652 38.86 5.208 38.752 4.704 38.752C4.152 38.752 3.66 38.876 3.228 39.124C2.796 39.372 2.456 39.728 2.208 40.192C1.968 40.656 1.848 41.196 1.848 41.812C1.848 42.428 1.968 42.968 2.208 43.432C2.456 43.896 2.796 44.256 3.228 44.512C3.66 44.76 4.152 44.884 4.704 44.884C5.208 44.884 5.652 44.776 6.036 44.56C6.42 44.344 6.72 44.016 6.936 43.576H8.58C8.268 44.376 7.764 44.992 7.068 45.424C6.38 45.856 5.592 46.072 4.704 46.072C3.92 46.072 3.204 45.892 2.556 45.532C1.908 45.164 1.392 44.656 1.008 44.008C0.632 43.36 0.444 42.628 0.444 41.812ZM13.0493 46.108C12.4253 46.108 11.8613 45.968 11.3573 45.688C10.8533 45.4 10.4573 45 10.1693 44.488C9.88125 43.968 9.73725 43.368 9.73725 42.688C9.73725 42.016 9.88525 41.42 10.1813 40.9C10.4773 40.38 10.8813 39.98 11.3933 39.7C11.9053 39.42 12.4773 39.28 13.1093 39.28C13.7413 39.28 14.3133 39.42 14.8253 39.7C15.3373 39.98 15.7413 40.38 16.0373 40.9C16.3333 41.42 16.4813 42.016 16.4813 42.688C16.4813 43.36 16.3293 43.956 16.0253 44.476C15.7213 44.996 15.3053 45.4 14.7773 45.688C14.2573 45.968 13.6813 46.108 13.0493 46.108ZM13.0493 44.92C13.4013 44.92 13.7293 44.836 14.0333 44.668C14.3453 44.5 14.5973 44.248 14.7893 43.912C14.9813 43.576 15.0773 43.168 15.0773 42.688C15.0773 42.208 14.9853 41.804 14.8013 41.476C14.6173 41.14 14.3733 40.888 14.0693 40.72C13.7653 40.552 13.4373 40.468 13.0853 40.468C12.7333 40.468 12.4053 40.552 12.1013 40.72C11.8053 40.888 11.5693 41.14 11.3933 41.476C11.2173 41.804 11.1293 42.208 11.1293 42.688C11.1293 43.4 11.3093 43.952 11.6693 44.344C12.0373 44.728 12.4973 44.92 13.0493 44.92ZM21.1696 39.28C21.6896 39.28 22.1536 39.388 22.5616 39.604C22.9776 39.82 23.3016 40.14 23.5336 40.564C23.7656 40.988 23.8816 41.5 23.8816 42.1V46H22.5256V42.304C22.5256 41.712 22.3776 41.26 22.0816 40.948C21.7856 40.628 21.3816 40.468 20.8696 40.468C20.3576 40.468 19.9496 40.628 19.6456 40.948C19.3496 41.26 19.2016 41.712 19.2016 42.304V46H17.8336V39.388H19.2016V40.144C19.4256 39.872 19.7096 39.66 20.0536 39.508C20.4056 39.356 20.7776 39.28 21.1696 39.28ZM27.2226 40.504V44.164C27.2226 44.412 27.2786 44.592 27.3906 44.704C27.5106 44.808 27.7106 44.86 27.9906 44.86H28.8306V46H27.7506C27.1346 46 26.6626 45.856 26.3346 45.568C26.0066 45.28 25.8426 44.812 25.8426 44.164V40.504H25.0626V39.388H25.8426V37.744H27.2226V39.388H28.8306V40.504H27.2226ZM29.6354 42.664C29.6354 42 29.7714 41.412 30.0434 40.9C30.3234 40.388 30.6994 39.992 31.1714 39.712C31.6514 39.424 32.1794 39.28 32.7554 39.28C33.2754 39.28 33.7274 39.384 34.1114 39.592C34.5034 39.792 34.8154 40.044 35.0474 40.348V39.388H36.4274V46H35.0474V45.016C34.8154 45.328 34.4994 45.588 34.0994 45.796C33.6994 46.004 33.2434 46.108 32.7314 46.108C32.1634 46.108 31.6434 45.964 31.1714 45.676C30.6994 45.38 30.3234 44.972 30.0434 44.452C29.7714 43.924 29.6354 43.328 29.6354 42.664ZM35.0474 42.688C35.0474 42.232 34.9514 41.836 34.7594 41.5C34.5754 41.164 34.3314 40.908 34.0274 40.732C33.7234 40.556 33.3954 40.468 33.0434 40.468C32.6914 40.468 32.3634 40.556 32.0594 40.732C31.7554 40.9 31.5074 41.152 31.3154 41.488C31.1314 41.816 31.0394 42.208 31.0394 42.664C31.0394 43.12 31.1314 43.52 31.3154 43.864C31.5074 44.208 31.7554 44.472 32.0594 44.656C32.3714 44.832 32.6994 44.92 33.0434 44.92C33.3954 44.92 33.7234 44.832 34.0274 44.656C34.3314 44.48 34.5754 44.224 34.7594 43.888C34.9514 43.544 35.0474 43.144 35.0474 42.688ZM37.7682 42.688C37.7682 42.008 37.9042 41.412 38.1762 40.9C38.4562 40.38 38.8402 39.98 39.3282 39.7C39.8162 39.42 40.3762 39.28 41.0082 39.28C41.8082 39.28 42.4682 39.472 42.9882 39.856C43.5162 40.232 43.8722 40.772 44.0562 41.476H42.5802C42.4602 41.148 42.2682 40.892 42.0042 40.708C41.7402 40.524 41.4082 40.432 41.0082 40.432C40.4482 40.432 40.0002 40.632 39.6642 41.032C39.3362 41.424 39.1722 41.976 39.1722 42.688C39.1722 43.4 39.3362 43.956 39.6642 44.356C40.0002 44.756 40.4482 44.956 41.0082 44.956C41.8002 44.956 42.3242 44.608 42.5802 43.912H44.0562C43.8642 44.584 43.5042 45.12 42.9762 45.52C42.4482 45.912 41.7922 46.108 41.0082 46.108C40.3762 46.108 39.8162 45.968 39.3282 45.688C38.8402 45.4 38.4562 45 38.1762 44.488C37.9042 43.968 37.7682 43.368 37.7682 42.688ZM47.0155 40.504V44.164C47.0155 44.412 47.0715 44.592 47.1835 44.704C47.3035 44.808 47.5035 44.86 47.7835 44.86H48.6235V46H47.5435C46.9275 46 46.4555 45.856 46.1275 45.568C45.7995 45.28 45.6355 44.812 45.6355 44.164V40.504H44.8555V39.388H45.6355V37.744H47.0155V39.388H48.6235V40.504H47.0155ZM52.7524 46.108C52.1284 46.108 51.5644 45.968 51.0604 45.688C50.5564 45.4 50.1604 45 49.8724 44.488C49.5844 43.968 49.4404 43.368 49.4404 42.688C49.4404 42.016 49.5884 41.42 49.8844 40.9C50.1804 40.38 50.5844 39.98 51.0964 39.7C51.6084 39.42 52.1804 39.28 52.8124 39.28C53.4444 39.28 54.0164 39.42 54.5284 39.7C55.0404 39.98 55.4444 40.38 55.7404 40.9C56.0364 41.42 56.1844 42.016 56.1844 42.688C56.1844 43.36 56.0324 43.956 55.7284 44.476C55.4244 44.996 55.0084 45.4 54.4804 45.688C53.9604 45.968 53.3844 46.108 52.7524 46.108ZM52.7524 44.92C53.1044 44.92 53.4324 44.836 53.7364 44.668C54.0484 44.5 54.3004 44.248 54.4924 43.912C54.6844 43.576 54.7804 43.168 54.7804 42.688C54.7804 42.208 54.6884 41.804 54.5044 41.476C54.3204 41.14 54.0764 40.888 53.7724 40.72C53.4684 40.552 53.1404 40.468 52.7884 40.468C52.4364 40.468 52.1084 40.552 51.8044 40.72C51.5084 40.888 51.2724 41.14 51.0964 41.476C50.9204 41.804 50.8324 42.208 50.8324 42.688C50.8324 43.4 51.0124 43.952 51.3724 44.344C51.7404 44.728 52.2004 44.92 52.7524 44.92ZM59.9367 46.108C59.4167 46.108 58.9487 46.016 58.5327 45.832C58.1247 45.64 57.8007 45.384 57.5607 45.064C57.3207 44.736 57.1927 44.372 57.1767 43.972H58.5927C58.6167 44.252 58.7487 44.488 58.9887 44.68C59.2367 44.864 59.5447 44.956 59.9127 44.956C60.2967 44.956 60.5927 44.884 60.8007 44.74C61.0167 44.588 61.1247 44.396 61.1247 44.164C61.1247 43.916 61.0047 43.732 60.7647 43.612C60.5327 43.492 60.1607 43.36 59.6487 43.216C59.1527 43.08 58.7487 42.948 58.4367 42.82C58.1247 42.692 57.8527 42.496 57.6207 42.232C57.3967 41.968 57.2847 41.62 57.2847 41.188C57.2847 40.836 57.3887 40.516 57.5967 40.228C57.8047 39.932 58.1007 39.7 58.4847 39.532C58.8767 39.364 59.3247 39.28 59.8287 39.28C60.5807 39.28 61.1847 39.472 61.6407 39.856C62.1047 40.232 62.3527 40.748 62.3847 41.404H61.0167C60.9927 41.108 60.8727 40.872 60.6567 40.696C60.4407 40.52 60.1487 40.432 59.7807 40.432C59.4207 40.432 59.1447 40.5 58.9527 40.636C58.7607 40.772 58.6647 40.952 58.6647 41.176C58.6647 41.352 58.7287 41.5 58.8567 41.62C58.9847 41.74 59.1407 41.836 59.3247 41.908C59.5087 41.972 59.7807 42.056 60.1407 42.16C60.6207 42.288 61.0127 42.42 61.3167 42.556C61.6287 42.684 61.8967 42.876 62.1207 43.132C62.3447 43.388 62.4607 43.728 62.4687 44.152C62.4687 44.528 62.3647 44.864 62.1567 45.16C61.9487 45.456 61.6527 45.688 61.2687 45.856C60.8927 46.024 60.4487 46.108 59.9367 46.108Z" fill="#173EA5"/>
</svg>
