<svg width="56" height="56" viewBox="0 0 56 56" fill="none" xmlns="http://www.w3.org/2000/svg">
<path d="M36.84 20.6099C36.3292 20.0989 35.7228 19.6935 35.0554 19.417C34.3879 19.1404 33.6725 18.998 32.95 18.998C32.2275 18.998 31.5121 19.1404 30.8446 19.417C30.1772 19.6935 29.5708 20.0989 29.06 20.6099L28 21.6699L26.94 20.6099C25.9083 19.5782 24.509 18.9986 23.05 18.9986C21.591 18.9986 20.1917 19.5782 19.16 20.6099C18.1283 21.6416 17.5487 23.0408 17.5487 24.4999C17.5487 25.9589 18.1283 27.3582 19.16 28.3899L20.22 29.4499L28 37.2299L35.78 29.4499L36.84 28.3899C37.351 27.8791 37.7563 27.2727 38.0329 26.6052C38.3095 25.9378 38.4518 25.2224 38.4518 24.4999C38.4518 23.7774 38.3095 23.062 38.0329 22.3945C37.7563 21.7271 37.351 21.1206 36.84 20.6099V20.6099Z" stroke="#808080" stroke-width="1.5" stroke-linecap="round" stroke-linejoin="round"/>
</svg>
