<svg width="56" height="56" viewBox="0 0 56 56" fill="none" xmlns="http://www.w3.org/2000/svg">
<path d="M28.0003 38.8337C33.9836 38.8337 38.8337 33.9836 38.8337 28.0003C38.8337 22.0171 33.9836 17.167 28.0003 17.167C22.0171 17.167 17.167 22.0171 17.167 28.0003C17.167 33.9836 22.0171 38.8337 28.0003 38.8337Z" stroke="#808080" stroke-width="1.5" stroke-linecap="round" stroke-linejoin="round"/>
<path d="M28 31.251C28.862 31.251 29.6886 30.9086 30.2981 30.2991C30.9076 29.6896 31.25 28.8629 31.25 28.001C31.25 27.139 30.9076 26.3124 30.2981 25.7029C29.6886 25.0934 28.862 24.751 28 24.751C27.138 24.751 26.3114 25.0934 25.7019 25.7029C25.0924 26.3124 24.75 27.139 24.75 28.001C24.75 28.8629 25.0924 29.6896 25.7019 30.2991C26.3114 30.9086 27.138 31.251 28 31.251V31.251Z" stroke="#808080" stroke-width="1.5" stroke-linecap="round" stroke-linejoin="round"/>
<path d="M17.167 28H24.7503M31.2503 28H38.8337" stroke="#808080" stroke-width="1.5"/>
</svg>
