<svg width="56" height="56" viewBox="0 0 56 56" fill="none" xmlns="http://www.w3.org/2000/svg">
<path d="M36.9998 26C36.9998 33 27.9998 39 27.9998 39C27.9998 39 18.9998 33 18.9998 26C18.9998 23.6131 19.948 21.3239 21.6358 19.636C23.3236 17.9482 25.6128 17 27.9998 17C30.3867 17 32.6759 17.9482 34.3637 19.636C36.0515 21.3239 36.9998 23.6131 36.9998 26Z" stroke="#808080" stroke-width="1.5" stroke-linecap="round" stroke-linejoin="round"/>
<path d="M27.9995 29C28.7952 29 29.5582 28.6839 30.1208 28.1213C30.6834 27.5587 30.9995 26.7956 30.9995 26C30.9995 25.2044 30.6834 24.4413 30.1208 23.8787C29.5582 23.3161 28.7952 23 27.9995 23C27.2039 23 26.4408 23.3161 25.8782 23.8787C25.3156 24.4413 24.9995 25.2044 24.9995 26C24.9995 26.7956 25.3156 27.5587 25.8782 28.1213C26.4408 28.6839 27.2039 29 27.9995 29Z" fill="white" stroke="#808080" stroke-width="1.5" stroke-linecap="round" stroke-linejoin="round"/>
<path d="M18.9998 26L25.2998 26M30.6998 26L36.9998 26" stroke="#808080" stroke-width="1.5"/>
</svg>
