<svg width="56" height="56" viewBox="0 0 56 56" fill="none" xmlns="http://www.w3.org/2000/svg">
<path d="M28 31.9168C18.7917 23.7918 19.3333 21.6252 18.25 17.8335H37.75C37.75 22.7085 33.4167 28.6668 28 31.9168Z" fill="white"/>
<path d="M37.75 17.8335H18.25C18.4306 14.9446 20.4167 8.62516 28 8.0835C35.0417 8.0835 37.5694 14.5835 37.75 17.8335Z" fill="#CD3131"/>
<circle cx="28" cy="17.8335" r="3.25" fill="white"/>
<path d="M37.75 17.8335C37.75 25.4168 28 31.9168 28 31.9168C28 31.9168 18.25 25.4168 18.25 17.8335C18.25 15.2476 19.2772 12.7677 21.1057 10.9392C22.9342 9.11073 25.4141 8.0835 28 8.0835C30.5859 8.0835 33.0658 9.11073 34.8943 10.9392C36.7228 12.7677 37.75 15.2476 37.75 17.8335Z" stroke="#173EA5" stroke-width="1.5" stroke-linecap="round" stroke-linejoin="round"/>
<path d="M28 21.0835C28.862 21.0835 29.6886 20.7411 30.2981 20.1316C30.9076 19.5221 31.25 18.6954 31.25 17.8335C31.25 16.9715 30.9076 16.1449 30.2981 15.5354C29.6886 14.9259 28.862 14.5835 28 14.5835C27.138 14.5835 26.3114 14.9259 25.7019 15.5354C25.0924 16.1449 24.75 16.9715 24.75 17.8335C24.75 18.6954 25.0924 19.5221 25.7019 20.1316C26.3114 20.7411 27.138 21.0835 28 21.0835Z" fill="white" stroke="#173EA5" stroke-width="1.625" stroke-linecap="round" stroke-linejoin="round"/>
<path d="M18.25 17.8335L25.075 17.8335M30.925 17.8335L37.75 17.8335" stroke="#173EA5" stroke-width="1.625"/>
<path d="M5.232 44L3.312 40.664H2.268V44H0.9V35.66H3.78C4.42 35.66 4.96 35.772 5.4 35.996C5.848 36.22 6.18 36.52 6.396 36.896C6.62 37.272 6.732 37.692 6.732 38.156C6.732 38.7 6.572 39.196 6.252 39.644C5.94 40.084 5.456 40.384 4.8 40.544L6.864 44H5.232ZM2.268 39.572H3.78C4.292 39.572 4.676 39.444 4.932 39.188C5.196 38.932 5.328 38.588 5.328 38.156C5.328 37.724 5.2 37.388 4.944 37.148C4.688 36.9 4.3 36.776 3.78 36.776H2.268V39.572ZM14.542 40.532C14.542 40.78 14.526 41.004 14.494 41.204H9.44203C9.48203 41.732 9.67803 42.156 10.03 42.476C10.382 42.796 10.814 42.956 11.326 42.956C12.062 42.956 12.582 42.648 12.886 42.032H14.362C14.162 42.64 13.798 43.14 13.27 43.532C12.75 43.916 12.102 44.108 11.326 44.108C10.694 44.108 10.126 43.968 9.62203 43.688C9.12603 43.4 8.73403 43 8.44603 42.488C8.16603 41.968 8.02603 41.368 8.02603 40.688C8.02603 40.008 8.16203 39.412 8.43403 38.9C8.71403 38.38 9.10203 37.98 9.59803 37.7C10.102 37.42 10.678 37.28 11.326 37.28C11.95 37.28 12.506 37.416 12.994 37.688C13.482 37.96 13.862 38.344 14.134 38.84C14.406 39.328 14.542 39.892 14.542 40.532ZM13.114 40.1C13.106 39.596 12.926 39.192 12.574 38.888C12.222 38.584 11.786 38.432 11.266 38.432C10.794 38.432 10.39 38.584 10.054 38.888C9.71803 39.184 9.51803 39.588 9.45403 40.1H13.114ZM18.5523 37.28C19.0643 37.28 19.5163 37.384 19.9083 37.592C20.3083 37.792 20.6203 38.044 20.8443 38.348V37.388H22.2243V44.108C22.2243 44.716 22.0963 45.256 21.8403 45.728C21.5843 46.208 21.2123 46.584 20.7243 46.856C20.2443 47.128 19.6683 47.264 18.9963 47.264C18.1003 47.264 17.3563 47.052 16.7643 46.628C16.1723 46.212 15.8363 45.644 15.7563 44.924H17.1123C17.2163 45.268 17.4363 45.544 17.7723 45.752C18.1163 45.968 18.5243 46.076 18.9963 46.076C19.5483 46.076 19.9923 45.908 20.3283 45.572C20.6723 45.236 20.8443 44.748 20.8443 44.108V43.004C20.6123 43.316 20.2963 43.58 19.8963 43.796C19.5043 44.004 19.0563 44.108 18.5523 44.108C17.9763 44.108 17.4483 43.964 16.9683 43.676C16.4963 43.38 16.1203 42.972 15.8403 42.452C15.5683 41.924 15.4323 41.328 15.4323 40.664C15.4323 40 15.5683 39.412 15.8403 38.9C16.1203 38.388 16.4963 37.992 16.9683 37.712C17.4483 37.424 17.9763 37.28 18.5523 37.28ZM20.8443 40.688C20.8443 40.232 20.7483 39.836 20.5563 39.5C20.3723 39.164 20.1283 38.908 19.8243 38.732C19.5203 38.556 19.1923 38.468 18.8403 38.468C18.4883 38.468 18.1603 38.556 17.8563 38.732C17.5523 38.9 17.3043 39.152 17.1123 39.488C16.9283 39.816 16.8363 40.208 16.8363 40.664C16.8363 41.12 16.9283 41.52 17.1123 41.864C17.3043 42.208 17.5523 42.472 17.8563 42.656C18.1683 42.832 18.4963 42.92 18.8403 42.92C19.1923 42.92 19.5203 42.832 19.8243 42.656C20.1283 42.48 20.3723 42.224 20.5563 41.888C20.7483 41.544 20.8443 41.144 20.8443 40.688ZM24.7171 36.512C24.4691 36.512 24.2611 36.428 24.0931 36.26C23.9251 36.092 23.8411 35.884 23.8411 35.636C23.8411 35.388 23.9251 35.18 24.0931 35.012C24.2611 34.844 24.4691 34.76 24.7171 34.76C24.9571 34.76 25.1611 34.844 25.3291 35.012C25.4971 35.18 25.5811 35.388 25.5811 35.636C25.5811 35.884 25.4971 36.092 25.3291 36.26C25.1611 36.428 24.9571 36.512 24.7171 36.512ZM25.3891 37.388V44H24.0211V37.388H25.3891ZM30.0532 44.108C29.4292 44.108 28.8652 43.968 28.3612 43.688C27.8572 43.4 27.4612 43 27.1732 42.488C26.8852 41.968 26.7412 41.368 26.7412 40.688C26.7412 40.016 26.8892 39.42 27.1852 38.9C27.4812 38.38 27.8852 37.98 28.3972 37.7C28.9092 37.42 29.4812 37.28 30.1132 37.28C30.7452 37.28 31.3172 37.42 31.8292 37.7C32.3412 37.98 32.7452 38.38 33.0412 38.9C33.3372 39.42 33.4852 40.016 33.4852 40.688C33.4852 41.36 33.3332 41.956 33.0292 42.476C32.7252 42.996 32.3092 43.4 31.7812 43.688C31.2612 43.968 30.6852 44.108 30.0532 44.108ZM30.0532 42.92C30.4052 42.92 30.7332 42.836 31.0372 42.668C31.3492 42.5 31.6012 42.248 31.7932 41.912C31.9852 41.576 32.0812 41.168 32.0812 40.688C32.0812 40.208 31.9892 39.804 31.8052 39.476C31.6212 39.14 31.3772 38.888 31.0732 38.72C30.7692 38.552 30.4412 38.468 30.0892 38.468C29.7372 38.468 29.4092 38.552 29.1052 38.72C28.8092 38.888 28.5732 39.14 28.3972 39.476C28.2212 39.804 28.1332 40.208 28.1332 40.688C28.1332 41.4 28.3132 41.952 28.6732 42.344C29.0412 42.728 29.5012 42.92 30.0532 42.92ZM38.1735 37.28C38.6935 37.28 39.1575 37.388 39.5655 37.604C39.9815 37.82 40.3055 38.14 40.5375 38.564C40.7695 38.988 40.8855 39.5 40.8855 40.1V44H39.5295V40.304C39.5295 39.712 39.3815 39.26 39.0855 38.948C38.7895 38.628 38.3855 38.468 37.8735 38.468C37.3615 38.468 36.9535 38.628 36.6495 38.948C36.3535 39.26 36.2055 39.712 36.2055 40.304V44H34.8375V37.388H36.2055V38.144C36.4295 37.872 36.7135 37.66 37.0575 37.508C37.4095 37.356 37.7815 37.28 38.1735 37.28ZM48.6905 40.532C48.6905 40.78 48.6745 41.004 48.6425 41.204H43.5905C43.6305 41.732 43.8265 42.156 44.1785 42.476C44.5305 42.796 44.9625 42.956 45.4745 42.956C46.2105 42.956 46.7305 42.648 47.0345 42.032H48.5105C48.3105 42.64 47.9465 43.14 47.4185 43.532C46.8985 43.916 46.2505 44.108 45.4745 44.108C44.8425 44.108 44.2745 43.968 43.7705 43.688C43.2745 43.4 42.8825 43 42.5945 42.488C42.3145 41.968 42.1745 41.368 42.1745 40.688C42.1745 40.008 42.3105 39.412 42.5825 38.9C42.8625 38.38 43.2505 37.98 43.7465 37.7C44.2505 37.42 44.8265 37.28 45.4745 37.28C46.0985 37.28 46.6545 37.416 47.1425 37.688C47.6305 37.96 48.0105 38.344 48.2825 38.84C48.5545 39.328 48.6905 39.892 48.6905 40.532ZM47.2625 40.1C47.2545 39.596 47.0745 39.192 46.7225 38.888C46.3705 38.584 45.9345 38.432 45.4145 38.432C44.9425 38.432 44.5385 38.584 44.2025 38.888C43.8665 39.184 43.6665 39.588 43.6025 40.1H47.2625ZM52.4367 44.108C51.9167 44.108 51.4487 44.016 51.0327 43.832C50.6247 43.64 50.3007 43.384 50.0607 43.064C49.8207 42.736 49.6927 42.372 49.6767 41.972H51.0927C51.1167 42.252 51.2487 42.488 51.4887 42.68C51.7367 42.864 52.0447 42.956 52.4127 42.956C52.7967 42.956 53.0927 42.884 53.3007 42.74C53.5167 42.588 53.6247 42.396 53.6247 42.164C53.6247 41.916 53.5047 41.732 53.2647 41.612C53.0327 41.492 52.6607 41.36 52.1487 41.216C51.6527 41.08 51.2487 40.948 50.9367 40.82C50.6247 40.692 50.3527 40.496 50.1207 40.232C49.8967 39.968 49.7847 39.62 49.7847 39.188C49.7847 38.836 49.8887 38.516 50.0967 38.228C50.3047 37.932 50.6007 37.7 50.9847 37.532C51.3767 37.364 51.8247 37.28 52.3287 37.28C53.0807 37.28 53.6847 37.472 54.1407 37.856C54.6047 38.232 54.8527 38.748 54.8847 39.404H53.5167C53.4927 39.108 53.3727 38.872 53.1567 38.696C52.9407 38.52 52.6487 38.432 52.2807 38.432C51.9207 38.432 51.6447 38.5 51.4527 38.636C51.2607 38.772 51.1647 38.952 51.1647 39.176C51.1647 39.352 51.2287 39.5 51.3567 39.62C51.4847 39.74 51.6407 39.836 51.8247 39.908C52.0087 39.972 52.2807 40.056 52.6407 40.16C53.1207 40.288 53.5127 40.42 53.8167 40.556C54.1287 40.684 54.3967 40.876 54.6207 41.132C54.8447 41.388 54.9607 41.728 54.9687 42.152C54.9687 42.528 54.8647 42.864 54.6567 43.16C54.4487 43.456 54.1527 43.688 53.7687 43.856C53.3927 44.024 52.9487 44.108 52.4367 44.108Z" fill="#173EA5"/>
</svg>
