<svg width="94" height="94" viewBox="0 0 94 94" fill="none" xmlns="http://www.w3.org/2000/svg">
<mask id="path-1-inside-1_1403_8108" fill="white">
<path d="M24.4032 33.3928L44.9525 43.6674V20.5494L24.4032 7.70605V33.3928Z"/>
<path d="M47.5212 20.5494V43.6674L68.0706 33.3928V7.70605L47.5212 20.5494Z"/>
<path d="M68.0706 59.0795L47.5212 48.8048V74.4915L68.0706 84.7662V59.0795Z"/>
<path d="M44.9525 74.4915V48.8048L24.4032 59.0795V84.7662L44.9525 74.4915Z"/>
<path d="M68.0706 35.9614L47.5212 46.2361L68.0706 56.5108L91.1886 46.2361L68.0706 35.9614Z"/>
<path d="M24.4032 35.9614L44.9525 46.2361L21.8345 56.5108L1.28516 46.2361L24.4032 35.9614Z"/>
</mask>
<path d="M44.9525 43.6674L28.8701 75.8323L80.9139 101.854V43.6674H44.9525ZM24.4032 33.3928H-11.5582V55.6181L8.32077 65.5576L24.4032 33.3928ZM24.4032 7.70605L43.4627 -22.7891L-11.5582 -57.1772V7.70605H24.4032ZM44.9525 20.5494H80.9139V0.617898L64.012 -9.94578L44.9525 20.5494ZM47.5212 43.6674H11.5598V101.854L63.6036 75.8323L47.5212 43.6674ZM47.5212 20.5494L28.4617 -9.94578L11.5598 0.617897V20.5494H47.5212ZM68.0706 7.70605H104.032V-57.1772L49.0111 -22.7891L68.0706 7.70605ZM68.0706 33.3928L84.153 65.5576L104.032 55.6181V33.3928H68.0706ZM47.5212 48.8048L63.6036 16.6399L11.5598 -9.38196V48.8048H47.5212ZM68.0706 59.0795H104.032V36.8541L84.153 26.9146L68.0706 59.0795ZM68.0706 84.7662L51.9882 116.931L104.032 142.953V84.7662H68.0706ZM47.5212 74.4915H11.5598V96.7168L31.4388 106.656L47.5212 74.4915ZM44.9525 48.8048H80.9139V-9.38197L28.8701 16.6399L44.9525 48.8048ZM44.9525 74.4915L61.035 106.656L80.9139 96.7168V74.4915H44.9525ZM24.4032 84.7662H-11.5582V142.953L40.4856 116.931L24.4032 84.7662ZM24.4032 59.0795L8.32077 26.9146L-11.5582 36.8541V59.0795H24.4032ZM47.5212 46.2361L31.4388 14.0713L-32.8909 46.2361L31.4388 78.4009L47.5212 46.2361ZM68.0706 35.9614L82.6759 3.0995L67.1675 -3.7931L51.9882 3.79659L68.0706 35.9614ZM91.1886 46.2361L105.794 79.098L179.733 46.2361L105.794 13.3742L91.1886 46.2361ZM68.0706 56.5108L51.9882 88.6756L67.1675 96.2653L82.6759 89.3727L68.0706 56.5108ZM44.9525 46.2361L59.5578 79.098L129.192 48.1496L61.035 14.0713L44.9525 46.2361ZM24.4032 35.9614L40.4856 3.79659L25.3062 -3.7931L9.79788 3.0995L24.4032 35.9614ZM1.28516 46.2361L-13.3201 13.3742L-82.954 44.3226L-14.7973 78.4009L1.28516 46.2361ZM21.8345 56.5108L5.7521 88.6756L20.9315 96.2653L36.4398 89.3727L21.8345 56.5108ZM61.035 11.5026L40.4856 1.22792L8.32077 65.5576L28.8701 75.8323L61.035 11.5026ZM60.3646 33.3928V7.70605H-11.5582V33.3928H60.3646ZM5.34369 38.2012L25.893 51.0446L64.012 -9.94578L43.4627 -22.7891L5.34369 38.2012ZM8.99117 20.5494V43.6674H80.9139V20.5494H8.99117ZM83.4826 43.6674V20.5494H11.5598V43.6674H83.4826ZM66.5807 51.0446L87.1301 38.2012L49.0111 -22.7891L28.4617 -9.94578L66.5807 51.0446ZM32.1092 7.70605V33.3928H104.032V7.70605H32.1092ZM51.9882 1.22792L31.4388 11.5026L63.6036 75.8323L84.153 65.5576L51.9882 1.22792ZM31.4388 80.9696L51.9882 91.2443L84.153 26.9146L63.6036 16.6399L31.4388 80.9696ZM32.1092 59.0795V84.7662H104.032V59.0795H32.1092ZM84.153 52.6013L63.6036 42.3266L31.4388 106.656L51.9882 116.931L84.153 52.6013ZM83.4826 74.4915V48.8048H11.5598V74.4915H83.4826ZM8.99117 48.8048V74.4915H80.9139V48.8048H8.99117ZM28.8701 42.3266L8.32077 52.6013L40.4856 116.931L61.035 106.656L28.8701 42.3266ZM60.3646 84.7662V59.0795H-11.5582V84.7662H60.3646ZM40.4856 91.2443L61.035 80.9696L28.8701 16.6399L8.32077 26.9146L40.4856 91.2443ZM63.6036 78.4009L84.153 68.1263L51.9882 3.79659L31.4388 14.0713L63.6036 78.4009ZM53.4653 68.8233L76.5833 79.098L105.794 13.3742L82.6759 3.0995L53.4653 68.8233ZM76.5833 13.3742L53.4653 23.6489L82.6759 89.3727L105.794 79.098L76.5833 13.3742ZM84.153 24.3459L63.6036 14.0713L31.4388 78.4009L51.9882 88.6756L84.153 24.3459ZM61.035 14.0713L40.4856 3.79659L8.32077 68.1263L28.8701 78.4009L61.035 14.0713ZM9.79788 3.0995L-13.3201 13.3742L15.8905 79.098L39.0085 68.8233L9.79788 3.0995ZM-14.7973 78.4009L5.7521 88.6756L37.9169 24.3459L17.3676 14.0713L-14.7973 78.4009ZM36.4398 89.3727L59.5578 79.098L30.3472 13.3742L7.22922 23.6489L36.4398 89.3727Z" fill="url(#paint0_linear_1403_8108)" mask="url(#path-1-inside-1_1403_8108)"/>
<defs>
<linearGradient id="paint0_linear_1403_8108" x1="1.00073" y1="8" x2="91.0007" y2="85" gradientUnits="userSpaceOnUse">
<stop stop-color="white"/>
<stop offset="1" stop-color="white" stop-opacity="0"/>
</linearGradient>
</defs>
</svg>
