<svg width="94" height="94" viewBox="0 0 94 94" fill="none" xmlns="http://www.w3.org/2000/svg">
<g clip-path="url(#clip0_1403_6178)">
<path fill-rule="evenodd" clip-rule="evenodd" d="M51.5342 46.7946C52.1712 46.4061 52.7117 45.592 53.1476 44.6873C58.884 47.0318 62.9151 52.5719 62.9151 59.0327C62.9151 67.6157 55.8009 74.5738 47.0251 74.5738C43.4226 74.5738 40.1001 73.4012 37.4349 71.4251C36.5606 71.0111 35.8413 70.6135 35.2527 70.288C34.3397 69.7833 33.741 69.4522 33.3661 69.504C32.2702 69.6551 32.5884 70.6634 32.8775 71.5794C33.0738 72.2016 33.2569 72.7812 32.9736 73.0202C32.6772 73.2706 31.7174 72.3554 30.5958 71.2862C29.0691 69.8304 27.2427 68.0891 26.3814 68.6121C25.7005 69.0257 26.3616 70.1477 27.1709 71.521L27.2309 71.6229C27.5728 72.2034 27.969 72.7946 28.3305 73.334C29.0654 74.4302 29.6573 75.3136 29.3612 75.4631C29.0032 75.6438 26.5089 73.9602 24.4069 71.6229C23.5956 70.7209 22.8098 69.7431 22.0795 68.8344V68.8343C20.4809 66.8452 19.1491 65.1883 18.4015 65.3845C17.5022 65.6206 18.1825 67.4757 19.1822 69.2607C19.6496 70.0955 20.1995 70.9456 20.6755 71.6816V71.6818C21.416 72.8263 21.978 73.6949 21.7742 73.8018C21.4991 73.9455 19.0792 71.5858 17.4355 68.6121C16.4593 66.8458 15.6395 64.8938 14.9759 63.3136C14.2562 61.5997 13.7201 60.3232 13.3671 60.1947C12.1405 59.7484 12.1405 62.2491 12.6325 65.8584C12.6966 66.3293 12.7922 66.8232 12.9099 67.326C17.6804 82.7613 32.335 94 49.6734 94C70.8816 94 88.0741 77.185 88.0741 56.4426C88.0741 36.7004 72.5 20.5161 52.7125 19.0009C52.7374 18.0708 53.2229 16.2266 53.2229 16.2266C53.2229 16.2266 56.7161 7.77468 56.9008 5.96861C56.9129 5.84875 56.9274 5.71849 56.943 5.57976C57.1606 3.62835 57.5654 0 54.4439 0C52.7769 0 52.0018 1.24011 51.1152 2.65842V2.65844C50.7748 3.20292 50.4179 3.77368 49.9879 4.3106C46.8911 8.17793 41.6836 13.0074 38.7309 15.5803C32.4898 21.0185 26.3666 25.488 22.7953 28.0946L22.7951 28.0948C21.1709 29.2803 20.0746 30.0806 19.7354 30.4112C17.1786 32.9037 8.01139 49.4392 8.01139 49.4392C8.01139 49.4392 5.04681 54.7444 6.10054 55.8204C7.15428 56.8963 9.69536 56.6497 9.69536 56.6497C9.69536 56.6497 43.833 48.8181 46.8892 48.2005C47.7121 48.0342 48.293 47.9382 48.7389 47.8645C49.9498 47.6646 50.1671 47.6286 51.5342 46.7946ZM27.3976 36.7305C25.5652 38.4723 22.5262 42.6297 22.5262 42.6297C22.5262 42.6297 28.1742 42.9776 31.2849 40.0209C34.3957 37.0639 33.683 32.0248 33.683 32.0248C33.683 32.0248 29.2299 34.9887 27.3976 36.7305Z" fill="url(#paint0_linear_1403_6178)"/>
</g>
<defs>
<linearGradient id="paint0_linear_1403_6178" x1="-2.35331" y1="7.04886" x2="71.7071" y2="108.47" gradientUnits="userSpaceOnUse">
<stop stop-color="white"/>
<stop offset="1" stop-color="white" stop-opacity="0"/>
</linearGradient>
<clipPath id="clip0_1403_6178">
<rect width="94" height="94" fill="white"/>
</clipPath>
</defs>
</svg>
