<svg width="94" height="94" viewBox="0 0 94 94" fill="none" xmlns="http://www.w3.org/2000/svg">
<g clip-path="url(#clip0_1403_7297)">
<path fill-rule="evenodd" clip-rule="evenodd" d="M64.6704 72.5929C65.8319 68.3461 63.5775 59.6157 63.5775 59.6157C63.5775 59.6157 61.9424 66.7279 59.3875 69.3566C57.2079 71.5989 54.5375 73.1541 50.7078 73.5628C53.839 72.0419 55.9923 68.8707 55.9923 65.2052C55.9923 60.0598 51.7491 55.8886 46.5149 55.8886C41.2806 55.8886 37.0372 60.0598 37.0372 65.2052C37.0372 66.6104 37.3539 67.9432 37.9206 69.138C34.6468 66.5298 34.132 62.3483 34.132 62.3483C34.132 62.3483 30.4763 77.526 40.5493 84.6656C50.6222 91.8052 70.3547 85.6684 70.3547 85.6684C70.3547 85.6684 42.1163 105.537 21.1914 83.9125C3.16631 65.284 16.4868 40.7593 16.4868 40.7593C16.4868 40.7593 15.9116 43.0344 15.9116 45.6754C15.9116 48.3164 17.3435 50.3259 17.3435 50.3259C17.3435 50.3259 21.6148 41.3226 24.9389 37.6612C28.085 34.1961 32.0288 31.3856 35.4352 28.9581C38.0572 27.0895 40.361 25.4478 41.7368 23.9091C49.315 15.4355 44.6685 0.000976562 44.6685 0.000976562C44.6685 0.000976562 53.2111 7.53199 55.596 17.2584C56.5051 20.9659 55.9202 25.1844 55.3973 28.9567C54.5484 35.0806 53.8623 40.029 59.9952 39.7079C69.906 39.1889 61.2938 23.9091 61.2938 23.9091C61.2938 23.9091 83.7752 35.7252 82.0957 56.3909C80.416 77.0566 57.5224 81.7547 57.5224 81.7547C57.5224 81.7547 63.5088 76.8396 64.6704 72.5929Z" fill="url(#paint0_linear_1403_7297)"/>
</g>
<defs>
<linearGradient id="paint0_linear_1403_7297" x1="4.69805" y1="7.04983" x2="81.4647" y2="97.1332" gradientUnits="userSpaceOnUse">
<stop stop-color="white"/>
<stop offset="1" stop-color="white" stop-opacity="0"/>
</linearGradient>
<clipPath id="clip0_1403_7297">
<rect width="94" height="94" fill="white"/>
</clipPath>
</defs>
</svg>
