<svg width="94" height="94" viewBox="0 0 94 94" fill="none" xmlns="http://www.w3.org/2000/svg">
<path fill-rule="evenodd" clip-rule="evenodd" d="M62.8254 0.09252C62.8939 -0.00509974 63.0283 -0.0288239 63.126 0.0395302L69.8003 4.71301C69.898 4.78136 69.9217 4.9159 69.8534 5.01352L60.5637 18.2804C65.08 19.7232 68.1568 21.2796 68.1568 21.2796C68.1568 21.2796 60.6361 34.2159 47.8802 34.2159C35.1242 34.2159 26.06 22.159 26.06 22.159C26.06 22.159 29.274 20.1079 34.0383 18.3487L23.8488 6.20552C23.7723 6.11422 23.7842 5.97812 23.8755 5.90152L30.1171 0.664115C30.2085 0.587515 30.3446 0.599421 30.4211 0.690713L43.3226 16.0661C44.4273 15.9412 45.5527 15.8713 46.6884 15.8713C48.3208 15.8713 49.9511 15.9954 51.5427 16.206L62.8254 0.09252ZM65.3491 34.8286C68.7531 32.3974 73.904 26.0521 73.904 26.0521C73.904 26.0521 87.0611 36.4784 87.0611 58.586C87.0611 80.6934 64.3146 93.999 64.3146 93.999C64.3146 93.999 53.4467 83.0236 50.7787 69.1107C48.1109 55.1978 54.7253 39.7491 54.7253 39.7491C54.7253 39.7491 61.9449 37.2597 65.3491 34.8286V34.8286ZM28.6885 34.8286C25.2845 32.3974 20.1336 26.0521 20.1336 26.0521C20.1336 26.0521 6.97656 36.4784 6.97656 58.586C6.97656 80.6934 29.7231 93.999 29.7231 93.999C29.7231 93.999 40.5909 83.0236 43.2589 69.1107C45.9267 55.1978 39.3124 39.7491 39.3124 39.7491C39.3124 39.7491 32.0927 37.2597 28.6885 34.8286V34.8286Z" fill="url(#paint0_linear_1403_5608)"/>
<defs>
<linearGradient id="paint0_linear_1403_5608" x1="-1.03902" y1="7.04924" x2="73.587" y2="106.616" gradientUnits="userSpaceOnUse">
<stop stop-color="white"/>
<stop offset="1" stop-color="white" stop-opacity="0"/>
</linearGradient>
</defs>
</svg>
