<svg width="94" height="94" viewBox="0 0 94 94" fill="none" xmlns="http://www.w3.org/2000/svg">
<g clip-path="url(#clip0_1403_15462)">
<path fill-rule="evenodd" clip-rule="evenodd" d="M72.5429 44.9383C72.5376 44.931 72.5354 44.9218 72.5369 44.9128L78.5338 9.94437C78.5365 9.92827 78.5507 9.9165 78.5668 9.9165H80.4648C80.4795 9.9165 80.4923 9.926 80.4967 9.93995L94.0074 52.7179C94.0116 52.7311 94.007 52.7458 93.996 52.7544L84.0344 60.532C84.0195 60.5436 83.9981 60.5407 83.9869 60.5254L72.5429 44.9383ZM-0.185547 68.1198C-0.185547 68.1343 -0.176221 68.1471 -0.162434 68.1517L20.3724 74.8659C20.3823 74.8692 20.3933 74.8676 20.4019 74.8617L66.302 43.1734C66.3097 43.1681 66.3149 43.1598 66.3161 43.1506L71.2383 10.1237C71.2414 10.1034 71.2256 10.0852 71.2052 10.0852H30.5491C30.5391 10.0852 30.5297 10.0896 30.5233 10.0973L-0.177831 47.1335C-0.182819 47.1396 -0.185547 47.1471 -0.185547 47.155V68.1198ZM28.9293 76.5766L51.3632 83.9254C51.3733 83.9287 51.3845 83.927 51.3931 83.9208L78.1021 64.7622C78.117 64.7517 78.1207 64.7314 78.1106 64.7163L68.0981 49.8168C68.0876 49.8011 68.0667 49.7971 68.0513 49.8078L28.9293 76.5766Z" fill="url(#paint0_linear_1403_15462)"/>
</g>
<defs>
<linearGradient id="paint0_linear_1403_15462" x1="-9.61339" y1="15.4664" x2="39.4616" y2="113.278" gradientUnits="userSpaceOnUse">
<stop stop-color="white"/>
<stop offset="1" stop-color="white" stop-opacity="0"/>
</linearGradient>
<clipPath id="clip0_1403_15462">
<rect width="94" height="94" fill="white"/>
</clipPath>
</defs>
</svg>
